<?xml version="1.0" encoding="UTF-8" standalone="no"?>
<!-- Created with matplotlib (http://matplotlib.org/) -->

<svg
   xmlns:dc="http://purl.org/dc/elements/1.1/"
   xmlns:cc="http://creativecommons.org/ns#"
   xmlns:rdf="http://www.w3.org/1999/02/22-rdf-syntax-ns#"
   xmlns:svg="http://www.w3.org/2000/svg"
   xmlns="http://www.w3.org/2000/svg"
   xmlns:xlink="http://www.w3.org/1999/xlink"
   xmlns:sodipodi="http://sodipodi.sourceforge.net/DTD/sodipodi-0.dtd"
   xmlns:inkscape="http://www.inkscape.org/namespaces/inkscape"
   height="613pt"
   version="1.1"
   viewBox="0 0 1183 613"
   width="1183pt"
   id="svg15283"
   inkscape:version="0.48.3.1 r9886"
   sodipodi:docname="ols_ridge_variance.svg"
   inkscape:export-filename="/home/nelle/Projects/presentations/2013BOSTON/src/images/ols_ridge_variance.png"
   inkscape:export-xdpi="300"
   inkscape:export-ydpi="300">
  <metadata
     id="metadata15439">
    <rdf:RDF>
      <cc:Work
         rdf:about="">
        <dc:format>image/svg+xml</dc:format>
        <dc:type
           rdf:resource="http://purl.org/dc/dcmitype/StillImage" />
        <dc:title></dc:title>
      </cc:Work>
    </rdf:RDF>
  </metadata>
  <sodipodi:namedview
     pagecolor="#ffffff"
     bordercolor="#666666"
     borderopacity="1"
     objecttolerance="10"
     gridtolerance="10"
     guidetolerance="10"
     inkscape:pageopacity="0"
     inkscape:pageshadow="2"
     inkscape:window-width="1315"
     inkscape:window-height="744"
     id="namedview15437"
     showgrid="false"
     inkscape:zoom="0.7898563"
     inkscape:cx="921.64873"
     inkscape:cy="199.31754"
     inkscape:window-x="51"
     inkscape:window-y="24"
     inkscape:window-maximized="1"
     inkscape:current-layer="svg15283" />
  <defs
     id="defs15285">
    <style
       type="text/css"
       id="style15287">
*{stroke-linecap:square;stroke-linejoin:round;}
  </style>
  </defs>
  <g
     id="line2d_1"
     style="stroke-linecap:square;stroke-linejoin:round">
    <path
       clip-path="url(#p4ed8e8a634)"
       d="M 142.02,672.149 M 206.351,614.8 897.128,-1"
       style="fill:none;stroke:#007020;stroke-linecap:square;stroke-linejoin:round"
       id="path15298"
       inkscape:connector-curvature="0" />
  </g>
  <g
     id="line2d_2"
     style="stroke-linecap:square;stroke-linejoin:round">
    <path
       clip-path="url(#p4ed8e8a634)"
       d="M 142.02,533.199 1088.82,43.1122"
       style="fill:none;stroke:#007020;stroke-linecap:square;stroke-linejoin:round"
       id="path15301"
       inkscape:connector-curvature="0" />
  </g>
  <g
     id="line2d_3"
     style="stroke-linecap:square;stroke-linejoin:round">
    <path
       clip-path="url(#p4ed8e8a634)"
       d="M 142.02,875.672 M 315.468,614.8 724.899,-1"
       style="fill:none;stroke:#007020;stroke-linecap:square;stroke-linejoin:round"
       id="path15304"
       inkscape:connector-curvature="0" />
  </g>
  <g
     id="line2d_4"
     style="stroke-linecap:square;stroke-linejoin:round">
    <path
       clip-path="url(#p4ed8e8a634)"
       d="M 142.02,620.894 M 149.349,614.8 889.985,-1"
       style="fill:none;stroke:#007020;stroke-linecap:square;stroke-linejoin:round"
       id="path15307"
       inkscape:connector-curvature="0" />
  </g>
  <g
     id="line2d_5"
     style="stroke-linecap:square;stroke-linejoin:round">
    <path
       clip-path="url(#p4ed8e8a634)"
       d="M 142.02,522.972 1033.32,-1"
       style="fill:none;stroke:#007020;stroke-linecap:square;stroke-linejoin:round"
       id="path15310"
       inkscape:connector-curvature="0" />
  </g>
  <g
     id="line2d_6"
     style="stroke-linecap:square;stroke-linejoin:round">
    <path
       clip-path="url(#p4ed8e8a634)"
       d="M 142.02,511.785 1088.82,25.432"
       style="fill:none;stroke:#007020;stroke-linecap:square;stroke-linejoin:round"
       id="path15313"
       inkscape:connector-curvature="0" />
  </g>
  <g
     id="line2d_7"
     style="stroke-linecap:square;stroke-linejoin:round">
    <path
       clip-path="url(#p4ed8e8a634)"
       d="M 142.02,540.144 976.747,-1"
       style="fill:none;stroke:#ff9c34;stroke-width:2;stroke-linecap:square;stroke-linejoin:round"
       id="path15316"
       inkscape:connector-curvature="0" />
  </g>
  <g
     id="PathCollection_1"
     style="stroke-linecap:square;stroke-linejoin:round">
    <defs
       id="defs15349">
      <path
         d="m 0,2.73861 c 0.726289,0 1.42293,-0.28855 1.93649,-0.80212 C 2.45006,1.42293 2.73861,0.726289 2.73861,0 2.73861,-0.726289 2.45006,-1.42293 1.93649,-1.93649 1.42293,-2.45006 0.726289,-2.73861 0,-2.73861 c -0.726289,0 -1.42293,0.28855 -1.93649,0.80212 -0.51357,0.51356 -0.80212,1.210201 -0.80212,1.93649 0,0.726289 0.28855,1.42293 0.80212,1.93649 C -1.42293,2.45006 -0.726289,2.73861 0,2.73861 z"
         id="C0_0_976255c095"
         inkscape:connector-curvature="0"
         style="stroke-linecap:square;stroke-linejoin:round" />
    </defs>
    <g
       clip-path="url(#p4ed8e8a634)"
       id="g15352"
       style="stroke-linecap:square;stroke-linejoin:round">
      <use
         style="fill:#0e84b5;stroke:#000000;stroke-linecap:butt;stroke-linejoin:round"
         x="462.23022"
         xlink:href="#C0_0_976255c095"
         y="386.694"
         id="use15354"
         width="1183"
         height="613" />
    </g>
    <g
       clip-path="url(#p4ed8e8a634)"
       id="g15356"
       style="stroke-linecap:square;stroke-linejoin:round">
      <use
         style="fill:#0e84b5;stroke:#000000;stroke-linecap:butt;stroke-linejoin:round"
         x="634.36346"
         xlink:href="#C0_0_976255c095"
         y="233.244"
         id="use15358"
         width="1183"
         height="613" />
    </g>
  </g>
  <g
     id="PathCollection_2"
     style="stroke-linecap:square;stroke-linejoin:round">
    <defs
       id="defs15361">
      <path
         d="m 0,2.73861 c 0.726289,0 1.42293,-0.28855 1.93649,-0.80212 C 2.45006,1.42293 2.73861,0.726289 2.73861,0 2.73861,-0.726289 2.45006,-1.42293 1.93649,-1.93649 1.42293,-2.45006 0.726289,-2.73861 0,-2.73861 c -0.726289,0 -1.42293,0.28855 -1.93649,0.80212 -0.51357,0.51356 -0.80212,1.210201 -0.80212,1.93649 0,0.726289 0.28855,1.42293 0.80212,1.93649 C -1.42293,2.45006 -0.726289,2.73861 0,2.73861 z"
         id="C1_0_976255c095"
         inkscape:connector-curvature="0"
         style="stroke-linecap:square;stroke-linejoin:round" />
    </defs>
    <g
       clip-path="url(#p4ed8e8a634)"
       id="g15364"
       style="stroke-linecap:square;stroke-linejoin:round">
      <use
         style="fill:#0e84b5;stroke:#000000;stroke-linecap:butt;stroke-linejoin:round"
         x="425.05347"
         xlink:href="#C1_0_976255c095"
         y="386.694"
         id="use15366"
         width="1183"
         height="613" />
    </g>
    <g
       clip-path="url(#p4ed8e8a634)"
       id="g15368"
       style="stroke-linecap:square;stroke-linejoin:round">
      <use
         style="fill:#0e84b5;stroke:#000000;stroke-linecap:butt;stroke-linejoin:round"
         x="721.50391"
         xlink:href="#C1_0_976255c095"
         y="233.244"
         id="use15370"
         width="1183"
         height="613" />
    </g>
  </g>
  <g
     id="PathCollection_3"
     style="stroke-linecap:square;stroke-linejoin:round">
    <defs
       id="defs15373">
      <path
         d="m 0,2.73861 c 0.726289,0 1.42293,-0.28855 1.93649,-0.80212 C 2.45006,1.42293 2.73861,0.726289 2.73861,0 2.73861,-0.726289 2.45006,-1.42293 1.93649,-1.93649 1.42293,-2.45006 0.726289,-2.73861 0,-2.73861 c -0.726289,0 -1.42293,0.28855 -1.93649,0.80212 -0.51357,0.51356 -0.80212,1.210201 -0.80212,1.93649 0,0.726289 0.28855,1.42293 0.80212,1.93649 C -1.42293,2.45006 -0.726289,2.73861 0,2.73861 z"
         id="C2_0_976255c095"
         inkscape:connector-curvature="0"
         style="stroke-linecap:square;stroke-linejoin:round" />
    </defs>
    <g
       clip-path="url(#p4ed8e8a634)"
       id="g15376"
       style="stroke-linecap:square;stroke-linejoin:round">
      <use
         style="fill:#0e84b5;stroke:#000000;stroke-linecap:butt;stroke-linejoin:round"
         x="467.13019"
         xlink:href="#C2_0_976255c095"
         y="386.694"
         id="use15378"
         width="1183"
         height="613" />
    </g>
    <g
       clip-path="url(#p4ed8e8a634)"
       id="g15380"
       style="stroke-linecap:square;stroke-linejoin:round">
      <use
         style="fill:#0e84b5;stroke:#000000;stroke-linecap:butt;stroke-linejoin:round"
         x="569.15564"
         xlink:href="#C2_0_976255c095"
         y="233.244"
         id="use15382"
         width="1183"
         height="613" />
    </g>
  </g>
  <g
     id="PathCollection_4"
     style="stroke-linecap:square;stroke-linejoin:round">
    <defs
       id="defs15385">
      <path
         d="m 0,2.73861 c 0.726289,0 1.42293,-0.28855 1.93649,-0.80212 C 2.45006,1.42293 2.73861,0.726289 2.73861,0 2.73861,-0.726289 2.45006,-1.42293 1.93649,-1.93649 1.42293,-2.45006 0.726289,-2.73861 0,-2.73861 c -0.726289,0 -1.42293,0.28855 -1.93649,0.80212 -0.51357,0.51356 -0.80212,1.210201 -0.80212,1.93649 0,0.726289 0.28855,1.42293 0.80212,1.93649 C -1.42293,2.45006 -0.726289,2.73861 0,2.73861 z"
         id="C3_0_976255c095"
         inkscape:connector-curvature="0"
         style="stroke-linecap:square;stroke-linejoin:round" />
    </defs>
    <g
       clip-path="url(#p4ed8e8a634)"
       id="g15388"
       style="stroke-linecap:square;stroke-linejoin:round">
      <use
         style="fill:#0e84b5;stroke:#000000;stroke-linecap:butt;stroke-linejoin:round"
         x="423.69717"
         xlink:href="#C3_0_976255c095"
         y="386.694"
         id="use15390"
         width="1183"
         height="613" />
    </g>
    <g
       clip-path="url(#p4ed8e8a634)"
       id="g15392"
       style="stroke-linecap:square;stroke-linejoin:round">
      <use
         style="fill:#0e84b5;stroke:#000000;stroke-linecap:butt;stroke-linejoin:round"
         x="608.25476"
         xlink:href="#C3_0_976255c095"
         y="233.244"
         id="use15394"
         width="1183"
         height="613" />
    </g>
  </g>
  <g
     id="PathCollection_5"
     style="stroke-linecap:square;stroke-linejoin:round">
    <defs
       id="defs15397">
      <path
         d="m 0,2.73861 c 0.726289,0 1.42293,-0.28855 1.93649,-0.80212 C 2.45006,1.42293 2.73861,0.726289 2.73861,0 2.73861,-0.726289 2.45006,-1.42293 1.93649,-1.93649 1.42293,-2.45006 0.726289,-2.73861 0,-2.73861 c -0.726289,0 -1.42293,0.28855 -1.93649,0.80212 -0.51357,0.51356 -0.80212,1.210201 -0.80212,1.93649 0,0.726289 0.28855,1.42293 0.80212,1.93649 C -1.42293,2.45006 -0.726289,2.73861 0,2.73861 z"
         id="C4_0_976255c095"
         inkscape:connector-curvature="0"
         style="stroke-linecap:square;stroke-linejoin:round" />
    </defs>
    <g
       clip-path="url(#p4ed8e8a634)"
       id="g15400"
       style="stroke-linecap:square;stroke-linejoin:round">
      <use
         style="fill:#0e84b5;stroke:#000000;stroke-linecap:butt;stroke-linejoin:round"
         x="373.83362"
         xlink:href="#C4_0_976255c095"
         y="386.694"
         id="use15402"
         width="1183"
         height="613" />
    </g>
    <g
       clip-path="url(#p4ed8e8a634)"
       id="g15404"
       style="stroke-linecap:square;stroke-linejoin:round">
      <use
         style="fill:#0e84b5;stroke:#000000;stroke-linecap:butt;stroke-linejoin:round"
         x="634.85773"
         xlink:href="#C4_0_976255c095"
         y="233.244"
         id="use15406"
         width="1183"
         height="613" />
    </g>
  </g>
  <g
     id="PathCollection_6"
     style="stroke-linecap:square;stroke-linejoin:round">
    <defs
       id="defs15409">
      <path
         d="m 0,2.73861 c 0.726289,0 1.42293,-0.28855 1.93649,-0.80212 C 2.45006,1.42293 2.73861,0.726289 2.73861,0 2.73861,-0.726289 2.45006,-1.42293 1.93649,-1.93649 1.42293,-2.45006 0.726289,-2.73861 0,-2.73861 c -0.726289,0 -1.42293,0.28855 -1.93649,0.80212 -0.51357,0.51356 -0.80212,1.210201 -0.80212,1.93649 0,0.726289 0.28855,1.42293 0.80212,1.93649 C -1.42293,2.45006 -0.726289,2.73861 0,2.73861 z"
         id="C5_0_976255c095"
         inkscape:connector-curvature="0"
         style="stroke-linecap:square;stroke-linejoin:round" />
    </defs>
    <g
       clip-path="url(#p4ed8e8a634)"
       id="g15412"
       style="stroke-linecap:square;stroke-linejoin:round">
      <use
         style="fill:#0e84b5;stroke:#000000;stroke-linecap:butt;stroke-linejoin:round"
         x="385.53903"
         xlink:href="#C5_0_976255c095"
         y="386.694"
         id="use15414"
         width="1183"
         height="613" />
    </g>
    <g
       clip-path="url(#p4ed8e8a634)"
       id="g15416"
       style="stroke-linecap:square;stroke-linejoin:round">
      <use
         style="fill:#0e84b5;stroke:#000000;stroke-linecap:butt;stroke-linejoin:round"
         x="684.26532"
         xlink:href="#C5_0_976255c095"
         y="233.244"
         id="use15418"
         width="1183"
         height="613" />
    </g>
  </g>
  <g
     id="PathCollection_7"
     style="stroke-linecap:square;stroke-linejoin:round">
    <defs
       id="defs15421">
      <path
         d="M -2.73861,0 2.73861,0 M 0,2.73861 0,-2.73861"
         id="C6_0_9f9f99129b"
         inkscape:connector-curvature="0"
         style="stroke-linecap:square;stroke-linejoin:round" />
    </defs>
    <g
       clip-path="url(#p4ed8e8a634)"
       id="g15424"
       style="stroke-linecap:square;stroke-linejoin:round">
      <use
         style="fill:#ff0000;stroke:#ff0000;stroke-linecap:butt;stroke-linejoin:round"
         x="378.72"
         xlink:href="#C6_0_9f9f99129b"
         y="386.694"
         id="use15426"
         width="1183"
         height="613" />
    </g>
    <g
       clip-path="url(#p4ed8e8a634)"
       id="g15428"
       style="stroke-linecap:square;stroke-linejoin:round">
      <use
         style="fill:#ff0000;stroke:#ff0000;stroke-linecap:butt;stroke-linejoin:round"
         x="615.41998"
         xlink:href="#C6_0_9f9f99129b"
         y="233.244"
         id="use15430"
         width="1183"
         height="613" />
    </g>
  </g>
  <defs
     id="defs15432">
    <clipPath
       id="p4ed8e8a634">
      <rect
         height="491.04"
         width="946.8"
         x="142.02"
         y="49.104"
         id="rect15435" />
    </clipPath>
  </defs>
</svg>
