<?xml version="1.0" encoding="UTF-8" standalone="no"?>
<!-- Created with Inkscape (http://www.inkscape.org/) -->

<svg
   xmlns:dc="http://purl.org/dc/elements/1.1/"
   xmlns:cc="http://creativecommons.org/ns#"
   xmlns:rdf="http://www.w3.org/1999/02/22-rdf-syntax-ns#"
   xmlns:svg="http://www.w3.org/2000/svg"
   xmlns="http://www.w3.org/2000/svg"
   xmlns:sodipodi="http://sodipodi.sourceforge.net/DTD/sodipodi-0.dtd"
   xmlns:inkscape="http://www.inkscape.org/namespaces/inkscape"
   width="749.4375"
   height="172.28125"
   id="svg2"
   version="1.1"
   inkscape:version="0.48.4 r9939"
   sodipodi:docname="plasmids_with_centromeres.svg">
  <defs
     id="defs4" />
  <sodipodi:namedview
     id="base"
     pagecolor="#ffffff"
     bordercolor="#666666"
     borderopacity="1.0"
     inkscape:pageopacity="0.0"
     inkscape:pageshadow="2"
     inkscape:zoom="0.7"
     inkscape:cx="463.33739"
     inkscape:cy="-70.319114"
     inkscape:document-units="px"
     inkscape:current-layer="layer1"
     showgrid="false"
     fit-margin-top="0"
     fit-margin-left="0"
     fit-margin-right="0"
     fit-margin-bottom="0"
     inkscape:window-width="1301"
     inkscape:window-height="744"
     inkscape:window-x="65"
     inkscape:window-y="24"
     inkscape:window-maximized="1"
     showguides="true"
     inkscape:guide-bbox="true" />
  <metadata
     id="metadata7">
    <rdf:RDF>
      <cc:Work
         rdf:about="">
        <dc:format>image/svg+xml</dc:format>
        <dc:type
           rdf:resource="http://purl.org/dc/dcmitype/StillImage" />
        <dc:title></dc:title>
      </cc:Work>
    </rdf:RDF>
  </metadata>
  <g
     inkscape:label="Layer 1"
     inkscape:groupmode="layer"
     id="layer1"
     transform="translate(6.15625,-91.9375)">
    <path
       sodipodi:type="arc"
       style="opacity:0.95999995;fill:none;stroke:#000000;stroke-width:5.27803993;stroke-miterlimit:4;stroke-opacity:1;stroke-dasharray:none;stroke-dashoffset:0"
       id="path2987"
       sodipodi:cx="349.00769"
       sodipodi:cy="91.974121"
       sodipodi:rx="48.992397"
       sodipodi:ry="50.002552"
       d="m 398.00009,91.974121 a 48.992397,50.002552 0 1 1 -97.9848,0 48.992397,50.002552 0 1 1 97.9848,0 z"
       transform="matrix(0.95703778,0,0,0.93770365,34.548959,91.833656)" />
    <path
       sodipodi:type="arc"
       style="opacity:0.95999995;fill:none;stroke:#000000;stroke-width:5.05060816;stroke-miterlimit:4;stroke-opacity:1;stroke-dasharray:none;stroke-dashoffset:0"
       id="path3757-2"
       sodipodi:cx="359.61432"
       sodipodi:cy="111.6721"
       sodipodi:rx="10.606602"
       sodipodi:ry="11.111678"
       d="m 370.22092,111.6721 a 10.606602,11.111678 0 1 1 -21.2132,0 10.606602,11.111678 0 1 1 21.2132,0 z"
       transform="matrix(1.0132766,0,0,0.96721857,12.11539,89.904361)" />
    <path
       sodipodi:type="arc"
       style="opacity:0.95999995;fill:none;stroke:#000000;stroke-width:5.27803993;stroke-miterlimit:4;stroke-opacity:1;stroke-dasharray:none;stroke-dashoffset:0"
       id="path2987-91"
       sodipodi:cx="349.00769"
       sodipodi:cy="91.974121"
       sodipodi:rx="48.992397"
       sodipodi:ry="50.002552"
       d="m 398.00009,91.974121 a 48.992397,50.002552 0 1 1 -97.9848,0 48.992397,50.002552 0 1 1 97.9848,0 z"
       transform="matrix(0.95703778,0,0,0.93770365,179.90606,91.833656)" />
    <path
       sodipodi:type="arc"
       style="opacity:0.95999995;fill:none;stroke:#000000;stroke-width:5.05060816;stroke-miterlimit:4;stroke-opacity:1;stroke-dasharray:none;stroke-dashoffset:0"
       id="path3757-2-1"
       sodipodi:cx="359.61432"
       sodipodi:cy="111.6721"
       sodipodi:rx="10.606602"
       sodipodi:ry="11.111678"
       d="m 370.22092,111.6721 a 10.606602,11.111678 0 1 1 -21.2132,0 10.606602,11.111678 0 1 1 21.2132,0 z"
       transform="matrix(1.0132766,0,0,0.96721857,157.47249,89.904361)" />
    <path
       sodipodi:type="arc"
       style="opacity:0.95999995;fill:none;stroke:#000000;stroke-width:5.27803993;stroke-miterlimit:4;stroke-opacity:1;stroke-dasharray:none;stroke-dashoffset:0"
       id="path2987-6"
       sodipodi:cx="349.00769"
       sodipodi:cy="91.974121"
       sodipodi:rx="48.992397"
       sodipodi:ry="50.002552"
       d="m 398.00009,91.974121 a 48.992397,50.002552 0 1 1 -97.9848,0 48.992397,50.002552 0 1 1 97.9848,0 z"
       transform="matrix(0.95703778,0,0,0.93770365,-110.8082,91.833656)" />
    <path
       sodipodi:type="arc"
       style="opacity:0.95999995;fill:none;stroke:#000000;stroke-width:5.27803993;stroke-miterlimit:4;stroke-opacity:1;stroke-dasharray:none;stroke-dashoffset:0"
       id="path2987-6-3"
       sodipodi:cx="349.00769"
       sodipodi:cy="91.974121"
       sodipodi:rx="48.992397"
       sodipodi:ry="50.002552"
       d="m 398.00009,91.974121 a 48.992397,50.002552 0 1 1 -97.9848,0 48.992397,50.002552 0 1 1 97.9848,0 z"
       transform="matrix(0.95703778,0,0,0.93770365,-256.16534,91.833656)" />
    <path
       sodipodi:type="arc"
       style="opacity:0.95999995;fill:none;stroke:#000000;stroke-width:5.27803993;stroke-miterlimit:4;stroke-opacity:1;stroke-dasharray:none;stroke-dashoffset:0"
       id="path2987-6-2"
       sodipodi:cx="349.00769"
       sodipodi:cy="91.974121"
       sodipodi:rx="48.992397"
       sodipodi:ry="50.002552"
       d="m 398.00009,91.974121 a 48.992397,50.002552 0 1 1 -97.9848,0 48.992397,50.002552 0 1 1 97.9848,0 z"
       transform="matrix(0.95703778,0,0,0.93770365,325.26324,91.833656)" />
    <path
       sodipodi:type="arc"
       style="opacity:0.95999995;fill:none;stroke:#000000;stroke-width:5.05060816;stroke-miterlimit:4;stroke-opacity:1;stroke-dasharray:none;stroke-dashoffset:0"
       id="path3757-2-1-6"
       sodipodi:cx="359.61432"
       sodipodi:cy="111.6721"
       sodipodi:rx="10.606602"
       sodipodi:ry="11.111678"
       d="m 370.22092,111.6721 a 10.606602,11.111678 0 1 1 -21.2132,0 10.606602,11.111678 0 1 1 21.2132,0 z"
       transform="matrix(1.0132766,0,0,0.96721857,168.38355,65.493139)" />
    <path
       sodipodi:type="arc"
       style="opacity:0.95999995;fill:none;stroke:#000000;stroke-width:5.05060816;stroke-miterlimit:4;stroke-opacity:1;stroke-dasharray:none;stroke-dashoffset:0"
       id="path3757-2-2-2-6"
       sodipodi:cx="359.61432"
       sodipodi:cy="111.6721"
       sodipodi:rx="10.606602"
       sodipodi:ry="11.111678"
       d="m 370.22092,111.6721 a 10.606602,11.111678 0 1 1 -21.2132,0 10.606602,11.111678 0 1 1 21.2132,0 z"
       transform="matrix(1.0132766,0,0,0.96721857,135.45498,71.636)" />
    <path
       sodipodi:type="arc"
       style="opacity:0.95999995;fill:none;stroke:#000000;stroke-width:5.05060816;stroke-miterlimit:4;stroke-opacity:1;stroke-dasharray:none;stroke-dashoffset:0"
       id="path3757-2-2-2-7"
       sodipodi:cx="359.61432"
       sodipodi:cy="111.6721"
       sodipodi:rx="10.606602"
       sodipodi:ry="11.111678"
       d="m 370.22092,111.6721 a 10.606602,11.111678 0 1 1 -21.2132,0 10.606602,11.111678 0 1 1 21.2132,0 z"
       transform="matrix(1.0132766,0,0,0.96721857,-300.54502,74.778853)" />
  </g>
</svg>
