<?xml version="1.0" encoding="UTF-8" standalone="no"?>
<!-- Created with Inkscape (http://www.inkscape.org/) -->

<svg
   xmlns:dc="http://purl.org/dc/elements/1.1/"
   xmlns:cc="http://creativecommons.org/ns#"
   xmlns:rdf="http://www.w3.org/1999/02/22-rdf-syntax-ns#"
   xmlns:svg="http://www.w3.org/2000/svg"
   xmlns="http://www.w3.org/2000/svg"
   xmlns:sodipodi="http://sodipodi.sourceforge.net/DTD/sodipodi-0.dtd"
   xmlns:inkscape="http://www.inkscape.org/namespaces/inkscape"
   width="749.4375"
   height="172.28125"
   id="svg2"
   version="1.1"
   inkscape:version="0.48.4 r9939"
   sodipodi:docname="plasmids_without_centromeres_1.svg">
  <defs
     id="defs4" />
  <sodipodi:namedview
     id="base"
     pagecolor="#ffffff"
     bordercolor="#666666"
     borderopacity="1.0"
     inkscape:pageopacity="0.0"
     inkscape:pageshadow="2"
     inkscape:zoom="1.4"
     inkscape:cx="405.66447"
     inkscape:cy="31.41048"
     inkscape:document-units="px"
     inkscape:current-layer="layer1"
     showgrid="false"
     fit-margin-top="0"
     fit-margin-left="0"
     fit-margin-right="0"
     fit-margin-bottom="0"
     inkscape:window-width="1301"
     inkscape:window-height="744"
     inkscape:window-x="65"
     inkscape:window-y="24"
     inkscape:window-maximized="1"
     showguides="true"
     inkscape:guide-bbox="true" />
  <metadata
     id="metadata7">
    <rdf:RDF>
      <cc:Work
         rdf:about="">
        <dc:format>image/svg+xml</dc:format>
        <dc:type
           rdf:resource="http://purl.org/dc/dcmitype/StillImage" />
        <dc:title></dc:title>
      </cc:Work>
    </rdf:RDF>
  </metadata>
  <g
     inkscape:label="Layer 1"
     inkscape:groupmode="layer"
     id="layer1"
     transform="translate(6.15625,-91.9375)">
    <path
       sodipodi:type="arc"
       style="opacity:0.95999995;fill:none;stroke:#000000;stroke-width:5.27803993;stroke-miterlimit:4;stroke-opacity:1;stroke-dasharray:none;stroke-dashoffset:0"
       id="path2987-91"
       sodipodi:cx="349.00769"
       sodipodi:cy="91.974121"
       sodipodi:rx="48.992397"
       sodipodi:ry="50.002552"
       d="m 398.00009,91.974121 a 48.992397,50.002552 0 1 1 -97.9848,0 48.992397,50.002552 0 1 1 97.9848,0 z"
       transform="matrix(0.95703778,0,0,0.93770365,180.9016,93.688567)" />
    <path
       sodipodi:type="arc"
       style="opacity:0.95999995;fill:none;stroke:#000000;stroke-width:5.05060816;stroke-miterlimit:4;stroke-opacity:1;stroke-dasharray:none;stroke-dashoffset:0"
       id="path3757-2-1"
       sodipodi:cx="359.61432"
       sodipodi:cy="111.6721"
       sodipodi:rx="10.606602"
       sodipodi:ry="11.111678"
       d="m 370.22092,111.6721 a 10.606602,11.111678 0 1 1 -21.2132,0 10.606602,11.111678 0 1 1 21.2132,0 z"
       transform="matrix(1.0132766,0,0,0.96721857,158.46803,91.759271)" />
    <path
       sodipodi:type="arc"
       style="opacity:0.95999995;fill:none;stroke:#000000;stroke-width:5.27803993;stroke-miterlimit:4;stroke-opacity:1;stroke-dasharray:none;stroke-dashoffset:0"
       id="path2987-6-2"
       sodipodi:cx="349.00769"
       sodipodi:cy="91.974121"
       sodipodi:rx="48.992397"
       sodipodi:ry="50.002552"
       d="m 398.00009,91.974121 a 48.992397,50.002552 0 1 1 -97.9848,0 48.992397,50.002552 0 1 1 97.9848,0 z"
       transform="matrix(0.95703778,0,0,0.93770365,326.25878,93.688567)" />
    <path
       sodipodi:type="arc"
       style="opacity:0.95999995;fill:none;stroke:#000000;stroke-width:5.05060816;stroke-miterlimit:4;stroke-opacity:1;stroke-dasharray:none;stroke-dashoffset:0"
       id="path3757-2-2-2"
       sodipodi:cx="359.61432"
       sodipodi:cy="111.6721"
       sodipodi:rx="10.606602"
       sodipodi:ry="11.111678"
       d="m 370.22092,111.6721 a 10.606602,11.111678 0 1 1 -21.2132,0 10.606602,11.111678 0 1 1 21.2132,0 z"
       transform="matrix(1.0132766,0,0,0.96721857,303.82521,91.759271)" />
    <path
       sodipodi:type="arc"
       style="opacity:0.95999995;fill:none;stroke:#000000;stroke-width:5.27803993;stroke-miterlimit:4;stroke-opacity:1;stroke-dasharray:none;stroke-dashoffset:0"
       id="path2987-6-3"
       sodipodi:cx="349.00769"
       sodipodi:cy="91.974121"
       sodipodi:rx="48.992397"
       sodipodi:ry="50.002552"
       d="m 398.00009,91.974121 a 48.992397,50.002552 0 1 1 -97.9848,0 48.992397,50.002552 0 1 1 97.9848,0 z"
       transform="matrix(0.95703778,0,0,0.93770365,-255.1698,93.688567)" />
    <path
       sodipodi:type="arc"
       style="opacity:0.95999995;fill:none;stroke:#000000;stroke-width:5.05060816;stroke-miterlimit:4;stroke-opacity:1;stroke-dasharray:none;stroke-dashoffset:0"
       id="path3757-2-2-5"
       sodipodi:cx="359.61432"
       sodipodi:cy="111.6721"
       sodipodi:rx="10.606602"
       sodipodi:ry="11.111678"
       d="m 370.22092,111.6721 a 10.606602,11.111678 0 1 1 -21.2132,0 10.606602,11.111678 0 1 1 21.2132,0 z"
       transform="matrix(1.0132766,0,0,0.96721857,-277.60337,91.759271)" />
    <rect
       style="opacity:0.96999996;fill:#ffffff;fill-opacity:1;stroke:none"
       id="rect3006"
       width="754.28571"
       height="180"
       x="-1.4285715"
       y="-2.0044644"
       transform="translate(-6.15625,91.9375)" />
    <path
       sodipodi:type="arc"
       style="opacity:0.95999995;fill:none;stroke:#000000;stroke-width:5.27803993;stroke-miterlimit:4;stroke-opacity:1;stroke-dasharray:none;stroke-dashoffset:0"
       id="path2987"
       sodipodi:cx="349.00769"
       sodipodi:cy="91.974121"
       sodipodi:rx="48.992397"
       sodipodi:ry="50.002552"
       d="m 398.00009,91.974121 c 0,27.615649 -21.93465,50.002549 -48.9924,50.002549 -27.05775,0 -48.9924,-22.3869 -48.9924,-50.002549 0,-27.615647 21.93465,-50.002552 48.9924,-50.002552 27.05775,0 48.9924,22.386905 48.9924,50.002552 z"
       transform="matrix(0.95703778,0,0,0.93770365,35.544494,93.688567)" />
    <path
       sodipodi:type="arc"
       style="opacity:0.95999995;fill:none;stroke:#000000;stroke-width:5.27803993;stroke-miterlimit:4;stroke-opacity:1;stroke-dasharray:none;stroke-dashoffset:0"
       id="path2987-6"
       sodipodi:cx="349.00769"
       sodipodi:cy="91.974121"
       sodipodi:rx="48.992397"
       sodipodi:ry="50.002552"
       d="m 398.00009,91.974121 a 48.992397,50.002552 0 1 1 -97.9848,0 48.992397,50.002552 0 1 1 97.9848,0 z"
       transform="matrix(0.95703778,0,0,0.93770365,-109.81266,93.688567)" />
    <path
       sodipodi:type="arc"
       style="opacity:0.95999995;fill:none;stroke:#000000;stroke-width:5.05060816;stroke-miterlimit:4;stroke-opacity:1;stroke-dasharray:none;stroke-dashoffset:0"
       id="path3757-2-2"
       sodipodi:cx="359.61432"
       sodipodi:cy="111.6721"
       sodipodi:rx="10.606602"
       sodipodi:ry="11.111678"
       d="m 370.22092,111.6721 a 10.606602,11.111678 0 1 1 -21.2132,0 10.606602,11.111678 0 1 1 21.2132,0 z"
       transform="matrix(1.0132766,0,0,0.96721857,-132.24623,91.759271)" />
    <rect
       style="opacity:0.96999996;fill:none;stroke:none"
       id="rect3005"
       width="752.85712"
       height="178.57143"
       x="-7.8660622"
       y="88.792412" />
    <g
       transform="translate(-132.94166,-25.551847)"
       id="g3075">
      <path
         transform="matrix(1.0132766,0,0,0.96721857,13.110925,91.759272)"
         d="m 370.22092,111.6721 c 0,6.13681 -4.74874,11.11167 -10.6066,11.11167 -5.85787,0 -10.6066,-4.97486 -10.6066,-11.11167 0,-6.13681 4.74873,-11.11168 10.6066,-11.11168 5.85786,0 10.6066,4.97487 10.6066,11.11168 z"
         sodipodi:ry="11.111678"
         sodipodi:rx="10.606602"
         sodipodi:cy="111.6721"
         sodipodi:cx="359.61432"
         id="path3757-2"
         style="opacity:0.95999995;fill:none;stroke:#000000;stroke-width:5.05060816;stroke-miterlimit:4;stroke-opacity:1;stroke-dasharray:none;stroke-dashoffset:0"
         sodipodi:type="arc" />
    </g>
  </g>
</svg>
